# xmcd CD database file
#
# Track frame offsets:
#	150
#	20695
#	46447
#
# Disc length: 892 seconds
#
# Revision: 0
# Processed by: cddbd v1.5PL3 Copyright (c) Steve Scherf et al.
# Submitted via: CDex 1.50beta9
#
DISCID=20037a03
DTITLE=小沢健二 - 暗闇から手を伸ばせ
DYEAR=1900
DGENRE=Pop
TTITLE0=暗闇から手を伸ばせ
TTITLE1=夜と日時計
TTITLE2=暗闇から手を伸ばせ(オリジナルカラオケ)
EXTD=
EXTT0=
EXTT1=
EXTT2=
PLAYORDER=
